<svg width="24" height="24" viewBox="0 0 24 24" fill="none" xmlns="http://www.w3.org/2000/svg">
<path d="M7.00002 12.0002V16.0002C7.00002 16.2654 7.10537 16.5198 7.29291 16.7073C7.48045 16.8948 7.7348 17.0002 8.00002 17.0002H12C12.1316 17.0009 12.2621 16.9757 12.3839 16.926C12.5058 16.8762 12.6166 16.8029 12.71 16.7102L20 9.43019C20.6388 8.78271 20.997 7.90974 20.997 7.00019C20.997 6.09064 20.6388 5.21767 20 4.57019L19.43 4.00019C18.773 3.37994 17.9036 3.03442 17 3.03442C16.0964 3.03442 15.2271 3.37994 14.57 4.00019L7.29002 11.2902C7.19734 11.3836 7.12401 11.4944 7.07425 11.6163C7.02448 11.7381 6.99926 11.8686 7.00002 12.0002ZM9.00002 12.4102L16 5.41019C16.2708 5.15566 16.6284 5.01395 17 5.01395C17.3716 5.01395 17.7293 5.15566 18 5.41019L18.56 5.97019C18.8238 6.23615 18.9719 6.59558 18.9719 6.97019C18.9719 7.34479 18.8238 7.70422 18.56 7.97019L11.56 14.9702H9.00002V12.4102Z" fill="#FF5B5B"/>
<path d="M20 12C19.7348 12 19.4804 12.1054 19.2929 12.2929C19.1054 12.4804 19 12.7348 19 13V18C19 18.2652 18.8946 18.5196 18.7071 18.7071C18.5196 18.8946 18.2652 19 18 19H6C5.73478 19 5.48043 18.8946 5.29289 18.7071C5.10536 18.5196 5 18.2652 5 18V6C5 5.73478 5.10536 5.48043 5.29289 5.29289C5.48043 5.10536 5.73478 5 6 5H11C11.2652 5 11.5196 4.89464 11.7071 4.70711C11.8946 4.51957 12 4.26522 12 4C12 3.73478 11.8946 3.48043 11.7071 3.29289C11.5196 3.10536 11.2652 3 11 3H6C5.20435 3 4.44129 3.31607 3.87868 3.87868C3.31607 4.44129 3 5.20435 3 6V18C3 18.7956 3.31607 19.5587 3.87868 20.1213C4.44129 20.6839 5.20435 21 6 21H18C18.7956 21 19.5587 20.6839 20.1213 20.1213C20.6839 19.5587 21 18.7956 21 18V13C21 12.7348 20.8946 12.4804 20.7071 12.2929C20.5196 12.1054 20.2652 12 20 12Z" fill="#FF5B5B"/>
</svg>
